<?xml version="1.0" encoding="UTF-8" standalone="no"?>
<!-- Created with Inkscape (http://www.inkscape.org/) -->

<svg
   xmlns:dc="http://purl.org/dc/elements/1.1/"
   xmlns:cc="http://creativecommons.org/ns#"
   xmlns:rdf="http://www.w3.org/1999/02/22-rdf-syntax-ns#"
   xmlns:svg="http://www.w3.org/2000/svg"
   xmlns="http://www.w3.org/2000/svg"
   xmlns:sodipodi="http://sodipodi.sourceforge.net/DTD/sodipodi-0.dtd"
   xmlns:inkscape="http://www.inkscape.org/namespaces/inkscape"
   width="210mm"
   height="297mm"
   viewBox="0 0 210 297"
   version="1.1"
   id="svg8"
   inkscape:version="0.92.1 r15371"
   sodipodi:docname="Lill.svg">
  <defs
     id="defs2" />
  <sodipodi:namedview
     id="base"
     pagecolor="#ffffff"
     bordercolor="#666666"
     borderopacity="1.0"
     inkscape:pageopacity="0.0"
     inkscape:pageshadow="2"
     inkscape:zoom="0.7"
     inkscape:cx="50.61445"
     inkscape:cy="679.61847"
     inkscape:document-units="mm"
     inkscape:current-layer="layer2"
     showgrid="false"
     inkscape:window-width="1920"
     inkscape:window-height="1001"
     inkscape:window-x="-9"
     inkscape:window-y="-9"
     inkscape:window-maximized="1" />
  <metadata
     id="metadata5">
    <rdf:RDF>
      <cc:Work
         rdf:about="">
        <dc:format>image/svg+xml</dc:format>
        <dc:type
           rdf:resource="http://purl.org/dc/dcmitype/StillImage" />
        <dc:title></dc:title>
      </cc:Work>
    </rdf:RDF>
  </metadata>
  <g
     inkscape:label="Layer 1"
     inkscape:groupmode="layer"
     id="layer1" />
  <g
     inkscape:groupmode="layer"
     id="layer2"
     inkscape:label="Layer 2">
    <path
       style="fill:none;stroke:#807777;stroke-width:1.265;stroke-linecap:butt;stroke-linejoin:miter;stroke-opacity:1;stroke-miterlimit:4;stroke-dasharray:none"
       d="m 98.462797,109.90178 16.252973,20.97768 13.22917,4.7247 11.71726,-2.26785 5.85863,-10.39435 8.12649,-14.55208 4.91369,-14.741071 -1.5119,-7.181548 3.77976,-7.9375 -1.51191,-19.84375 -12.28422,-18.520833 -26.08036,2.078869 -16.63095,19.654763 -5.29167,29.104166 v 19.654764"
       id="path4501"
       inkscape:connector-curvature="0" />
    <path
       style="fill:none;stroke:#807777;stroke-width:1.265;stroke-linecap:butt;stroke-linejoin:miter;stroke-opacity:1;stroke-miterlimit:4;stroke-dasharray:none"
       d="m 117.55059,80.608629 4.34673,3.401785 11.33929,-0.188986 -2.36236,-4.724702 -2.72695,-1.186759 -4.73808,-0.703123 -3.86763,1.5233 z"
       id="path4503"
       inkscape:connector-curvature="0"
       sodipodi:nodetypes="cccccccc" />
    <path
       style="fill:none;stroke:#807777;stroke-width:1.265;stroke-linecap:butt;stroke-linejoin:miter;stroke-opacity:1;stroke-miterlimit:4;stroke-dasharray:none"
       d="m 146.0878,83.91592 3.07124,-2.446822 3.54334,-1.238444 5.66964,1.889881 -1.32291,4.346726 -5.46981,0.164203 -2.84567,-0.920155 z"
       id="path4505"
       inkscape:connector-curvature="0"
       sodipodi:nodetypes="cccccccc" />
    <path
       style="fill:none;stroke:#807777;stroke-width:1.265;stroke-linecap:butt;stroke-linejoin:miter;stroke-opacity:1;stroke-miterlimit:4;stroke-dasharray:none"
       d="m 138.71726,75.694939 -0.37798,-4.724702 -11.52827,-3.212798 -11.52827,3.023809 7.37053,-0.188987 7.18155,-0.188989 z"
       id="path4507"
       inkscape:connector-curvature="0" />
    <path
       style="fill:none;stroke:#807777;stroke-width:1.26499999;stroke-linecap:butt;stroke-linejoin:miter;stroke-miterlimit:4;stroke-dasharray:none;stroke-opacity:1"
       d="m 149.48958,75.127976 4.34673,-3.023812 6.42559,0.18899 0.36652,4.566172 -4.52426,-2.487304 -5.29166,2.267857 z"
       id="path4509"
       inkscape:connector-curvature="0"
       sodipodi:nodetypes="ccccccc" />
    <path
       style="fill:none;stroke:#807777;stroke-width:1.26499999;stroke-linecap:butt;stroke-linejoin:miter;stroke-miterlimit:4;stroke-dasharray:none;stroke-opacity:1"
       d="m 147.03274,78.340772 -0.94494,5.575148 2.07886,10.488841 1.90442,7.537719 -0.20352,0.96675 c -1.65595,1.42723 -3.08147,2.43218 -3.80689,2.18297 -1.20534,-0.41408 -2.47392,-0.68965 -4.50858,-2.08848 l -2.88207,0.0473 c -0.97216,1.14336 -2.50563,0.77426 -2.89936,0.73337 -0.98431,-0.10223 -0.26679,-2.27551 0.30077,-4.654878 l 0.18898,-0.188986"
       id="path4511"
       inkscape:connector-curvature="0"
       sodipodi:nodetypes="cccccsccscc" />
    <path
       style="fill:none;stroke:#807777;stroke-width:1.265;stroke-linecap:butt;stroke-linejoin:miter;stroke-opacity:1;stroke-miterlimit:4;stroke-dasharray:none"
       d="m 127.18899,116.32738 7.46503,-1.5119 4.6302,0.37797 1.32292,0.75595 4.91369,-0.56696 0.75595,2.26786 -19.08779,-1.32292"
       id="path4513"
       inkscape:connector-curvature="0"
       sodipodi:nodetypes="ccccccc" />
    <path
       style="fill:none;stroke:#807777;stroke-width:1.265;stroke-linecap:butt;stroke-linejoin:miter;stroke-opacity:1;stroke-miterlimit:4;stroke-dasharray:none"
       d="m 127.18899,116.32738 8.12648,4.7247 6.61459,0.56697 4.34672,-3.96875"
       id="path4515"
       inkscape:connector-curvature="0" />
    <path
       style="fill:none;stroke:#807777;stroke-width:1.265;stroke-linecap:butt;stroke-linejoin:miter;stroke-opacity:1;stroke-miterlimit:4;stroke-dasharray:none"
       d="m 133.80357,135.60416 -2.60595,6.78396 0.71607,7.57914 4.53571,7.55952 c 2.94141,7.78131 6.79323,14.54512 13.98512,17.5759 l -18.52083,7.74851 -35.529764,-1.7009 -7.74851,-11.71726 -0.377976,-3.21279"
       id="path4519"
       inkscape:connector-curvature="0"
       sodipodi:nodetypes="ccccccccc" />
    <ellipse
       style="opacity:0.73699999;fill:#245a3c;fill-opacity:1;stroke:#807777;stroke-width:0.1;stroke-miterlimit:4;stroke-dasharray:none;stroke-dashoffset:0;stroke-opacity:1"
       id="path4521"
       cx="125.8493"
       cy="80.596519"
       rx="3.1082504"
       ry="2.6865525" />
    <ellipse
       style="opacity:0.73699999;fill:#245a3c;fill-opacity:1;stroke:#807777;stroke-width:0.09229387;stroke-miterlimit:4;stroke-dasharray:none;stroke-dashoffset:0;stroke-opacity:1"
       id="path4521-3"
       cx="152.74454"
       cy="83.518463"
       rx="2.711199"
       ry="2.6235883" />
    <path
       style="opacity:0.73699999;fill:none;fill-opacity:1;stroke:#807777;stroke-width:1.66499996;stroke-miterlimit:4;stroke-dasharray:none;stroke-dashoffset:0;stroke-opacity:1"
       d="m 140.28834,40.642674 c -0.4068,-1.129048 -0.67815,-2.303859 -1.22607,-3.377089 -0.40822,-1.200484 -0.54933,-2.482179 -1.11412,-3.631837 -0.40526,-1.009029 -0.48049,-2.122481 -0.98636,-3.097857 -0.48426,-1.196888 -0.67557,-2.491278 -1.24658,-3.656797 -0.38512,-1.080452 -0.89736,-2.123719 -1.67749,-2.976492 -0.65457,-0.904127 -1.38202,-1.748177 -2.07659,-2.620041 0.82933,-0.496274 1.65867,-0.992547 2.488,-1.488821 0.9951,1.206507 1.95419,2.44319 2.8928,3.693872 0.64276,1.128268 1.06566,2.370573 1.50935,3.586555 0.26542,1.141435 0.72719,2.218151 1.12088,3.316206 0.20496,0.999734 0.52182,1.963842 0.92754,2.90001 0.39372,1.148242 0.48844,2.397498 1.1047,3.468894 0.25947,0.810201 0.58226,1.726341 0.7747,2.484514 -0.83026,0.466295 -1.66051,0.932589 -2.49076,1.398883 z"
       id="path4587"
       inkscape:connector-curvature="0" />
    <path
       style="opacity:0.73699999;fill:none;fill-opacity:1;stroke:#656565;stroke-width:1.66499996;stroke-miterlimit:4;stroke-dasharray:none;stroke-dashoffset:0;stroke-opacity:1"
       d="m 131.93524,20.69627 c -11.14592,0.115753 -23.04793,-1.137931 -33.237085,4.297399 -1.424331,0.17701 -10.086236,4.779064 -5.200701,2.104524 -7.566523,4.195283 -13.913057,10.478917 -17.592367,18.360005 -6.830832,9.98554 -6.027088,23.570743 -14.600398,32.567584 -6.090008,4.323683 -10.257936,22.945308 -13.70138,29.666958 -4.128924,6.23947 -3.412537,2.28303 -4.079152,9.54994 -1.107511,6.58684 6.893734,11.6461 5.984296,18.22206 -0.657433,8.03017 -11.980965,16.04287 -16.358549,23.03616 -4.891053,5.88152 -3.26074,13.4967 -3.270253,20.46771 1.10013,2.64397 -0.833952,11.12165 -2.991027,8.53435 1.441696,-7.24597 -0.753909,-14.72669 0.626273,-21.94289 3.004164,-6.54128 7.467384,-12.64885 7.874201,-20.08228 0.675808,-4.25586 7.849106,-4.36884 8.182623,-8.64306 0.227124,-2.91073 -7.500045,-14.13857 -7.221277,-17.04898 1.105097,-7.41657 9.028419,-4.93932 11.252865,-12.09301 3.797783,-8.440132 2.125627,-22.704454 10.107207,-27.744027 7.784781,-6.90216 8.70017,-17.880981 12.277193,-27.023933 4.243408,-8.977831 9.402643,-18.128179 18.313092,-23.202984 6.938633,-4.329866 14.534119,-8.184593 22.581739,-9.716433 7.69206,-1.68235 15.6056,-0.782032 23.40568,-1.018709 -0.78431,0.569882 -1.56877,1.139682 -2.35298,1.709616 z"
       id="path4589"
       inkscape:connector-curvature="0"
       sodipodi:nodetypes="cccccccccccccscccccccc" />
    <path
       style="opacity:0.73699999;fill:none;fill-opacity:1;stroke:#807777;stroke-width:1.66499996;stroke-miterlimit:4;stroke-dasharray:none;stroke-dashoffset:0;stroke-opacity:1"
       d="m 137.19073,18.917118 c 5.19838,3.171728 12.51806,5.569111 16.14238,10.721728 6.0514,4.933451 6.65008,13.001343 11.83188,18.621771 5.34733,2.470265 8.57099,7.315589 8.79093,13.218265 0.98039,5.393816 1.69426,11.038554 -0.4844,16.27506 -1.70473,5.940584 -3.2095,11.917924 -3.7957,18.06974 -1.72052,7.729778 -0.37996,15.718358 -0.6314,23.538808 -2.48889,7.7176 -6.6752,20.27773 -3.74383,28.36295 0.97456,5.98721 -2.12944,6.06091 4.66034,13.75833 3.52977,3.89156 8.84879,10.50635 5.2221,15.3747 -3.84677,2.34182 0.34284,-7.1359 -3.54285,-8.64505 -4.78845,-4.48211 -11.64595,-9.01928 -12.27571,-15.36394 -0.32851,-6.03911 2.18659,-13.32292 3.49463,-19.4164 0.86994,-6.54658 4.92402,-12.53568 3.49177,-19.31134 -0.14703,-6.66811 -0.38273,-13.3811 1.19491,-19.913431 0.44063,-7.71387 4.02266,-14.885307 4.86509,-22.54926 -0.4014,-5.75944 -0.92717,-11.737502 -3.34102,-17.03581 -4.85202,-3.573207 -8.88227,-8.936298 -11.21387,-14.823395 -3.25693,-5.904065 -8.97287,-8.98354 -13.73448,-13.649715 -1.59666,-2.590452 -12.67031,-4.459841 -7.13319,-7.103598 l 0.20212,-0.129413 z"
       id="path4591"
       inkscape:connector-curvature="0"
       sodipodi:nodetypes="cccccccccccccccccccccc" />
    <path
       style="opacity:0.73699999;fill:none;fill-opacity:1;stroke:#807777;stroke-width:1.66499996;stroke-miterlimit:4;stroke-dasharray:none;stroke-dashoffset:0;stroke-opacity:1"
       d="m 136.081,26.907603 c 7.17249,-4.961451 7.17337,6.705809 11.93301,8.3224 5.81898,0.174004 6.34754,9.322257 11.21858,12.219626 5.38456,3.667574 4.59848,10.581719 6.46508,16.025944 1.3453,6.774768 0.33389,13.5696 -2.00464,19.979427 -2.39496,6.287042 2.19097,13.136322 -1.58322,19.09981 -2.6517,6.2865 -4.46426,12.93684 -7.49706,19.04559 -3.25615,5.0068 -8.5798,8.63442 -10.16717,14.65236 -2.39583,6.6558 -4.29792,13.57979 -4.32216,20.70213 -0.73597,6.07956 2.81727,11.5464 3.22021,17.50555 1.04166,2.86893 2.70677,11.4664 -1.12235,9.83545 -0.82834,-5.90269 -1.63945,-11.80506 -3.54495,-17.47417 -2.06973,-6.28294 -1.09537,-13.10212 0.17096,-19.44689 1.97266,-7.02626 3.55199,-14.76502 9.31438,-19.79687 5.36293,-4.82899 6.32934,-12.04484 9.36822,-18.19147 2.23954,-6.07792 4.93502,-12.106479 2.87332,-18.682881 -0.44157,-7.036404 4.38088,-13.235549 3.21442,-20.334136 -0.66533,-6.235024 -1.3944,-12.883078 -4.15103,-18.533704 -3.97616,-4.060633 -7.72818,-8.39558 -10.2785,-13.535808 -2.01306,-2.781733 -6.62661,-0.62085 -7.20467,-5.531109 0.28057,-5.722624 -7.04797,-5.746716 -5.90243,-5.861249 0.4202,-0.323646 -0.41943,0.323386 0,0 z"
       id="path4603"
       inkscape:connector-curvature="0"
       sodipodi:nodetypes="cccccccccccccccccccccc" />
    <path
       style="opacity:0.73699999;fill:none;fill-opacity:1;stroke:#807777;stroke-width:1.66499996;stroke-miterlimit:4;stroke-dasharray:none;stroke-dashoffset:0;stroke-opacity:1"
       d="m 135.66658,37.754782 c -3.40752,-0.370062 -10.03572,-1.256397 -11.30056,-0.177637 6.44319,-3.353913 -8.40805,5.811736 -1.06517,1.337463 -1.7258,1.954781 -8.62679,6.116106 -8.31003,5.590509 4.15814,-2.255114 -9.69264,5.479102 -3.24873,1.781621 -1.7724,2.398038 -0.91088,11.687052 -2.92644,16.305741 -3.40636,4.268329 -8.22842,7.926092 -8.3843,13.90249 -1.523363,8.371879 -0.545493,16.97654 -0.791984,25.451591 0.191887,6.24125 0.139167,13.1161 -4.254402,18.07883 -4.598355,5.72143 -9.212993,11.19853 -8.710942,18.97503 0.490257,6.47064 -1.357149,12.54901 -3.327759,18.53454 0.718937,6.57365 -1.46392,12.81108 -1.750162,19.31243 -0.870571,3.81761 1.350252,10.25133 -3.298143,11.69766 0.515057,-5.5193 0.603094,-12.57707 1.730387,-18.55073 1.802421,-5.84186 -0.747472,-12.37448 2.832766,-17.77958 1.61975,-6.44269 1.097823,-13.19499 2.172877,-19.72238 2.348961,-6.22215 8.597951,-10.36009 10.934695,-16.77628 2.029871,-7.84914 0.798555,-16.081225 1.111731,-24.109131 -0.140573,-6.964135 -0.226779,-14.320225 2.883701,-20.713403 4.564725,-4.438532 8.750925,-9.509555 7.742635,-16.340691 0.4148,-3.383294 0.13585,-8.086117 4.41064,-8.966363 -6.60444,3.734314 6.18797,-3.541967 1.05686,-0.486979 1.67096,-1.255113 7.07189,-3.895995 2.55262,-1.384633 1.66671,-1.142459 7.29563,-5.554884 6.93114,-4.965188 -2.83224,2.047488 4.19061,-4.481939 6.64681,-3.459384 2.37768,0.608448 16.81052,-6.229053 6.36165,2.464477 z"
       id="path4607"
       inkscape:connector-curvature="0"
       sodipodi:nodetypes="ccccccccccccccccccccccccccc" />
  </g>
  <g
     inkscape:groupmode="layer"
     id="layer3"
     inkscape:label="Layer 3"
     style="display:inline" />
</svg>
